<svg viewBox="0 0 23 23" fill="none" xmlns="http://www.w3.org/2000/svg">
    <path opacity="0.7"
          d="M15.2424 5.9503C13.9046 5.75651 12.54 5.895 11.268 6.35364C9.99591 6.81228 8.85526 7.57707 7.9459 8.58105C7.03654 9.58502 6.38621 10.7975 6.05186 12.1124C5.71752 13.4273 5.70935 14.8045 6.02808 16.1233C6.34681 17.4421 6.98272 18.6623 7.8801 19.6771C8.77749 20.6918 9.90899 21.4702 11.1755 21.944C12.442 22.4178 13.8049 22.5726 15.1448 22.3948C16.4848 22.2171 17.7608 21.7121 18.8613 20.9243C18.8931 21.1695 18.9757 21.4052 19.1037 21.6165C19.2317 21.8277 19.4024 22.0097 19.6046 22.1507C19.8069 22.2917 20.0363 22.3887 20.2782 22.4354C20.52 22.482 20.7689 22.4774 21.0088 22.4217C21.4035 22.3194 21.7523 22.0864 21.9986 21.7602C22.2449 21.4341 22.3744 21.034 22.3659 20.6248V14.3557C22.3659 10.3926 19.1745 6.47938 15.2424 5.9503Z"
          fill="#726EF6"/>
    <path opacity="0.7"
          d="M13.4915 0.943359H2.57006C1.15065 0.943359 0 2.0987 0 3.52387V13.1671C0 14.5923 1.15065 15.7476 2.57006 15.7476H13.4915C14.9109 15.7476 16.0616 14.5923 16.0616 13.1671V3.52387C16.0616 2.0987 14.9109 0.943359 13.4915 0.943359Z"
          fill="#EB5792"/>
    <path d="M9.58002 11.5844C9.88202 11.5844 10.1268 11.3386 10.1268 11.0354C10.1268 10.7321 9.88202 10.4863 9.58002 10.4863C9.27802 10.4863 9.0332 10.7321 9.0332 11.0354C9.0332 11.3386 9.27802 11.5844 9.58002 11.5844Z"
          fill="white"/>
    <path d="M12.6914 11.5844C12.9934 11.5844 13.2382 11.3386 13.2382 11.0354C13.2382 10.7321 12.9934 10.4863 12.6914 10.4863C12.3894 10.4863 12.1445 10.7321 12.1445 11.0354C12.1445 11.3386 12.3894 11.5844 12.6914 11.5844Z"
          fill="white"/>
    <path d="M14.3377 6.12483L19.3535 3.27478C19.4773 3.20418 19.6173 3.16735 19.7597 3.16798C19.9021 3.1686 20.0418 3.20664 20.165 3.27833C20.2881 3.35001 20.3905 3.45283 20.4618 3.57656C20.5331 3.70028 20.5709 3.8406 20.5714 3.98355V10.1029C20.5716 10.2502 20.5323 10.3948 20.4575 10.5215C20.3827 10.6482 20.2753 10.7523 20.1465 10.8228C20.0178 10.8933 19.8725 10.9276 19.7259 10.9222C19.5793 10.9167 19.4369 10.8716 19.3137 10.7917L14.2929 7.5224C14.1758 7.44554 14.0804 7.33972 14.0159 7.21513C13.9513 7.09054 13.9198 6.95137 13.9242 6.81099C13.9287 6.67062 13.9691 6.53377 14.0415 6.4136C14.1139 6.29343 14.2159 6.19399 14.3377 6.12483V6.12483Z"
          fill="#8CE2D0"/>
</svg>
