<?xml version="1.0" encoding="utf-8"?>
<!-- Generator: Adobe Illustrator 25.4.1, SVG Export Plug-In . SVG Version: 6.00 Build 0)  -->
<svg version="1.1" id="Outline" xmlns="http://www.w3.org/2000/svg" xmlns:xlink="http://www.w3.org/1999/xlink" x="0px" y="0px"
	 viewBox="0 0 512 512" style="enable-background:new 0 0 512 512;" xml:space="preserve">
<style type="text/css">
	.st0{fill:#5B5F80;}
</style>
<path class="st0" d="M409.4,107.8c-6.8,0-13.3,1.3-19.3,3.7V85.8c0-30.2-24.6-54.8-54.7-54.8c-9.5,0-18.5,2.4-26.2,6.7
	c-8.4-19.4-27.8-33-50.3-33c-30.2,0-54.8,24.6-54.8,54.8v2.4c-6.7-2.9-14-4.5-21.7-4.5c-30.2,0-54.8,24.6-54.8,54.8v124.9
	c-12-10.5-27.5-15.8-43.3-14.7c-16,1-30.6,8.2-41.1,20.2c-10.6,12-15.8,27.4-14.8,43.4c1,16,8.2,30.6,19.4,40.3L170.3,450l1.9,2.1
	c31.5,33.9,76.1,53.4,122.3,53.4c92,0,166.9-74.9,166.9-166.9V159.8C461.4,131.2,438.1,107.8,409.4,107.8z M428.4,338.6
	c0,73.8-60.1,133.9-133.9,133.9c-37.1,0-72.8-15.6-98.1-42.8L70.5,302.3c-5.4-4.7-8.6-11.3-9.1-18.4c-0.5-7.2,1.9-14.1,6.6-19.4
	c4.7-5.4,11.3-8.6,18.4-9.1c0.6,0,1.2-0.1,1.8-0.1c6.5,0,12.7,2.3,17.7,6.7l27.3,24c4.9,4.3,11.8,5.3,17.7,2.6
	c5.9-2.7,9.7-8.6,9.7-15V112.1c0-12,9.8-21.7,21.7-21.7c12,0,21.7,9.8,21.7,21.7v100.6c0,9.1,7.4,16.5,16.5,16.5s16.5-7.4,16.5-16.5
	V112.1V59.5c0-12,9.8-21.7,21.7-21.7c12,0,21.7,9.8,21.7,21.7v26.3v126.9c0,9.1,7.4,16.5,16.5,16.5s16.5-7.4,16.5-16.5V85.8
	c0-12,9.8-21.7,21.7-21.7c12,0,21.7,9.8,21.7,21.7v126.9c0,9.1,7.7,16.5,16.8,16.5c9.1,0,16.5-7.4,16.5-16.5v-52.9
	c0-10.5,8.5-19,19-19c10.5,0,19,8.5,19,19V338.6z"/>
</svg>
