<?xml version="1.0" encoding="utf-8"?>
<!-- Generator: Adobe Illustrator 25.4.1, SVG Export Plug-In . SVG Version: 6.00 Build 0)  -->
<svg version="1.1" id="Filled" xmlns="http://www.w3.org/2000/svg" xmlns:xlink="http://www.w3.org/1999/xlink" x="0px" y="0px"
	 viewBox="0 0 512 512" style="enable-background:new 0 0 512 512;" xml:space="preserve">
<style type="text/css">
	.st0{fill:#726EF6;}
</style>
<path class="st0" d="M106.7,469.3c23.6,0,42.7-19.1,42.7-42.7v-128c0-23.6-19.1-42.7-42.7-42.7v-21.3c0-82.5,66.9-149.3,149.3-149.3
	s149.3,66.9,149.3,149.3V256c-23.6,0-42.7,19.1-42.7,42.7v128h-64c-11.8,0-21.3,9.6-21.3,21.3c0,11.8,9.6,21.3,21.3,21.3h106.7
	c58.9-0.2,106.5-48.1,106.3-107c-0.1-42.2-25.1-80.3-63.7-97.3v-30.4c0-106-86-192-192-192s-192,86-192,192V265
	c-53.9,23.7-78.4,86.7-54.6,140.6C26.4,444.2,64.5,469.2,106.7,469.3z"/>
</svg>
