<?xml version="1.0" encoding="utf-8"?>
<!-- Generator: Adobe Illustrator 25.4.1, SVG Export Plug-In . SVG Version: 6.00 Build 0)  -->
<svg version="1.1" id="Outline" xmlns="http://www.w3.org/2000/svg" xmlns:xlink="http://www.w3.org/1999/xlink" x="0px" y="0px"
	 viewBox="0 0 512 512" style="enable-background:new 0 0 512 512;" xml:space="preserve">
<style type="text/css">
	.st0{fill:#9B9EB5;}
</style>
<path class="st0" d="M493.2,18.8C477.6,3.1,455-3.4,433.5,1.7L92.1,73.6C33.8,81.6-7,135.4,1,193.7c3.2,23,13.8,44.4,30.2,60.9
	l36.7,36.6c4,4,6.3,9.4,6.3,15.1v67.6c0,9.5,2.2,18.9,6.4,27.4l-0.2,0.1L81,402c6.3,12.6,16.5,22.7,29.1,28.9l0.6,0.6l0.1-0.2
	c8.5,4.2,17.9,6.4,27.4,6.4h67.6c5.7,0,11.1,2.2,15.1,6.2l36.6,36.6c19.8,20.1,46.9,31.4,75.1,31.4c11.6,0,23.2-1.9,34.2-5.6
	c38-12.5,65.7-45.4,71.3-85l72-342.1C515.5,57.5,509.1,34.6,493.2,18.8z M98.1,261.1l-36.7-36.6c-17.4-17-23.4-42.6-15.4-65.6
	c7.8-23.6,28.6-40.5,53.3-43.2l337.9-71.1L116.8,365.1v-58.8C116.9,289.3,110.1,273.1,98.1,261.1z M396.2,414
	c-4.9,35-37.2,59.4-72.2,54.6c-13.8-1.9-26.5-8.3-36.4-18.1l-36.7-36.7c-12-12-28.2-18.8-45.2-18.7h-58.8L467.5,74.7L396.2,414z"/>
</svg>
