<?xml version="1.0" encoding="utf-8"?>
<!-- Generator: Adobe Illustrator 25.4.1, SVG Export Plug-In . SVG Version: 6.00 Build 0)  -->
<svg version="1.1" id="Layer_1" xmlns="http://www.w3.org/2000/svg" xmlns:xlink="http://www.w3.org/1999/xlink" x="0px" y="0px"
	 viewBox="0 0 512 512" style="enable-background:new 0 0 512 512;" xml:space="preserve">
<style type="text/css">
	.st0{fill:#5B5F80;}
</style>
<path class="st0" d="M512,128c0,23.6-19.2,42.6-42.6,42.6c-23.6,0-42.6-19.2-42.6-42.6c0-23.6-19.2-42.6-42.6-42.6h-85.4v341.4h42.6
	c23.6,0,42.6,19.2,42.6,42.6c0,23.6-19.2,42.6-42.6,42.6H170.8c-23.6,0-42.6-19.2-42.6-42.6c0-23.6,19.2-42.6,42.6-42.6h42.6V85.4
	H128c-23.6,0-42.6,19.2-42.6,42.6c0,23.6-19.2,42.6-42.6,42.6S0,151.6,0,128C0,57.4,57.4,0,128,0h256C454.6,0,512,57.4,512,128z"/>
</svg>
